Coordinates
version=1
nRows=12
nColumns=46
inDegrees=yes

Units are S.I. units (second, meters, Newtons, ...)
Angles are in degrees.

endheader
time	pelvis_tilt	pelvis_list	pelvis_rotation	pelvis_tx	pelvis_ty	pelvis_tz	bb_angle	bb_tx	bb_ty	bb_tz	hip_flexion_r	hip_adduction_r	hip_rotation_r	knee_angle_r	knee_angle_r_beta	ankle_angle_r	subtalar_angle_r	mtp_angle_r	crank_angle_r	hip_flexion_l	hip_adduction_l	hip_rotation_l	knee_angle_l	knee_angle_l_beta	ankle_angle_l	subtalar_angle_l	mtp_angle_l	crank_angle_l	lumbar_extension	lumbar_bending	lumbar_rotation	arm_flex_r	arm_add_r	arm_rot_r	elbow_flex_r	pro_sup_r	wrist_flex_r	wrist_dev_r	arm_flex_l	arm_add_l	arm_rot_l	elbow_flex_l	pro_sup_l	wrist_flex_l	wrist_dev_l
      2.50000000	     39.96941765	    -31.64862592	     23.80762775	      0.13981167	      0.97006178	     -0.29232940	      0.00000000	      0.50000000	      0.00000000	      0.25000000	     53.75657692	     13.02079106	    -31.94719872	    110.91610633	      1.93585125	     21.93543481	    -11.08312397	      0.00000000	      0.00000000	     44.08318245	    -49.92450110	     39.67565932	     93.79461132	      1.63702479	     11.80871373	     22.86462447	      0.00000000	      0.00000000	    -89.92172785	     17.73261732	     32.85110232	     89.72997715	    -12.64524155	     52.35823039	     29.51096035	     22.11560245	      0.00000000	      0.00000000	     89.78564810	     -7.53789963	     41.66993370	     38.58648016	     25.73325221	      0.00000000	      0.00000000
      2.50500000	     39.40858785	    -31.85708138	     23.71745582	      0.14033799	      0.96990759	     -0.29262884	      0.00000000	      0.50000000	      0.00000000	      0.25000000	     54.19910757	     12.84019755	    -32.02576264	    111.19073657	      1.94064445	     22.87391809	    -10.55989638	      0.00000000	      0.00000000	     44.47818727	    -49.92705200	     39.67973681	     93.42737190	      1.63061525	     12.52070722	     23.55020875	      0.00000000	      0.00000000	    -89.92114150	     17.73134798	     33.09184721	     89.72121423	    -13.31291244	     50.51764326	     31.83589206	     22.38441079	      0.00000000	      0.00000000	     89.77859403	     -7.89190080	     40.83128011	     40.46966133	     25.56037038	      0.00000000	      0.00000000
      2.51000000	     39.03662739	    -31.98650209	     23.81553488	      0.14080844	      0.97002790	     -0.29272885	      0.00000000	      0.50000000	      0.00000000	      0.25000000	     54.43265702	     12.62968837	    -32.21668970	    111.40436971	      1.94437305	     23.55716499	    -10.53645973	      0.00000000	      0.00000000	     44.73614148	    -49.92896991	     39.68293921	     92.93216646	      1.62197229	     13.05827340	     23.85223505	      0.00000000	      0.00000000	    -89.92036002	     17.88773020	     33.24490510	     89.72788657	    -13.39744698	     50.38913520	     31.98728590	     22.40279854	      0.00000000	      0.00000000	     89.78014096	     -8.02613895	     40.73496017	     40.64709302	     25.55327854	      0.00000000	      0.00000000
      2.51500000	     38.50660525	    -32.14605164	     23.80077098	      0.14143938	      0.96996148	     -0.29270128	      0.00000000	      0.50000000	      0.00000000	      0.25000000	     54.82652607	     12.42921117	    -32.33081225	    111.67735446	      1.94913754	     24.36526220	    -10.07445344	      0.00000000	      0.00000000	     45.07380685	    -49.93036193	     39.67305421	     92.43281785	      1.61325701	     13.72234446	     24.47501855	      0.00000000	      0.00000000	    -89.91975090	     17.89836046	     33.33698415	     89.71924491	    -13.87458141	     48.93152149	     34.05243416	     22.69703974	      0.00000000	      0.00000000	     89.77435350	     -8.55181829	     40.09195718	     42.62408172	     25.54896129	      0.00000000	      0.00000000
      2.52000000	     38.14249263	    -32.27224756	     23.93185240	      0.14205835	      0.96999481	     -0.29285088	      0.00000000	      0.50000000	      0.00000000	      0.25000000	     55.04358503	     12.17703908	    -32.57681503	    111.92491295	      1.95345825	     24.97277774	    -10.15089206	      0.00000000	      0.00000000	     45.30069808	    -49.93151286	     39.66630532	     91.89335305	      1.60384157	     14.22210830	     24.71696707	      0.00000000	      0.00000000	    -89.91925063	     18.09933610	     33.48774773	     89.72180632	    -13.95136519	     48.83923160	     34.15828112	     22.71204641	      0.00000000	      0.00000000	     89.77540956	     -8.67460504	     40.00843362	     42.73934420	     25.54496903	      0.00000000	      0.00000000
      2.52500000	     37.80496297	    -32.23695809	     24.10244748	      0.14271523	      0.96974940	     -0.29186927	      0.00000000	      0.50000000	      0.00000000	      0.25000000	     55.34425961	     11.95880778	    -32.67346204	    112.33115110	      1.96054844	     25.76471647	     -9.83787027	      0.00000000	      0.00000000	     45.50303920	    -49.93225531	     39.67230231	     91.31071531	      1.59367262	     14.94322998	     25.56223398	      0.00000000	      0.00000000	    -89.92089957	     18.11232960	     33.40655557	     89.70846276	    -14.30859308	     47.80915177	     35.73927664	     22.97966461	      0.00000000	      0.00000000	     89.77018366	     -9.12331680	     39.37588765	     44.40918383	     25.58329235	      0.00000000	      0.00000000
      2.53000000	     37.40373434	    -32.36137057	     24.19076694	      0.14349326	      0.96957294	     -0.29194722	      0.00000000	      0.50000000	      0.00000000	      0.25000000	     55.61850095	     11.68863720	    -32.86097951	    112.62583740	      1.96569169	     26.36521817	     -9.64808330	      0.00000000	      0.00000000	     45.71782400	    -49.93381891	     39.66164245	     90.78133855	      1.58443326	     15.59280440	     26.09372933	      0.00000000	      0.00000000	    -89.92020079	     18.24988890	     33.54294195	     89.70692917	    -14.52648389	     47.31494152	     36.53564361	     23.12445972	      0.00000000	      0.00000000	     89.76854419	     -9.35845641	     39.09241315	     45.12077641	     25.59148195	      0.00000000	      0.00000000
      2.53500000	     36.80278254	    -32.67862893	     24.10844066	      0.14445549	      0.96943745	     -0.29285120	      0.00000000	      0.50000000	      0.00000000	      0.25000000	     56.01269229	     11.35693626	    -33.12013866	    112.86920126	      1.96993919	     26.89001566	     -9.30335660	      0.00000000	      0.00000000	     46.08248540	    -49.93542103	     39.64290853	     90.33155200	      1.57658300	     16.26021819	     26.37859564	      0.00000000	      0.00000000	    -89.91828314	     18.36978150	     33.77247774	     89.70337689	    -14.91400515	     46.60718986	     37.98174510	     23.39081638	      0.00000000	      0.00000000	     89.75978905	     -9.72853635	     38.68327900	     46.26738413	     25.67904741	      0.00000000	      0.00000000
      2.54000000	     36.45723579	    -32.80523901	     24.24787506	      0.14536582	      0.96929919	     -0.29291176	      0.00000000	      0.50000000	      0.00000000	      0.25000000	     56.25965996	     11.06744881	    -33.35330554	    113.16981989	      1.97518597	     27.20139528	     -9.38765611	      0.00000000	      0.00000000	     46.32962305	    -49.93672150	     39.63573461	     89.80126015	      1.56732766	     16.67875489	     26.54741937	      0.00000000	      0.00000000	    -89.91714427	     18.58156761	     33.91939922	     89.70294428	    -15.00420588	     46.50530925	     38.16709510	     23.42597685	      0.00000000	      0.00000000	     89.75996158	     -9.85679456	     38.59169669	     46.41666175	     25.68970832	      0.00000000	      0.00000000
      2.54500000	     35.95050917	    -32.94574525	     24.23004254	      0.14642219	      0.96893711	     -0.29267975	      0.00000000	      0.50000000	      0.00000000	      0.25000000	     56.70548782	     10.75558055	    -33.52630999	    113.54969404	      1.98181603	     27.52300486	     -9.19788151	      0.00000000	      0.00000000	     46.66524106	    -49.93769130	     39.62738635	     89.32948250	      1.55909359	     17.24327235	     27.16001857	      0.00000000	      0.00000000	    -89.91703296	     18.58884960	     34.03750158	     89.68651757	    -15.61419663	     45.50152175	     40.44038767	     23.86971064	      0.00000000	      0.00000000	     89.74956568	    -10.34316742	     37.98533712	     48.29441387	     25.90909147	      0.00000000	      0.00000000
      2.55000000	     35.61217232	    -33.08819092	     24.32273789	      0.14747770	      0.96880432	     -0.29286934	      0.00000000	      0.50000000	      0.00000000	      0.25000000	     56.87995270	     10.33892899	    -33.86422995	    113.87014206	      1.98740890	     27.70670069	     -9.21442029	      0.00000000	      0.00000000	     46.88076256	    -49.93869971	     39.62138498	     88.87061184	      1.55108478	     17.65095336	     27.24203044	      0.00000000	      0.00000000	    -89.91639155	     18.75781177	     34.18959610	     89.68683563	    -15.72555158	     45.39521294	     40.62352204	     23.90840891	      0.00000000	      0.00000000	     89.74717788	    -10.43134675	     37.91507282	     48.44247625	     25.92307285	      0.00000000	      0.00000000
      2.55500000	     35.12800482	    -33.24023868	     24.27685891	      0.14862762	      0.96844924	     -0.29279425	      0.00000000	      0.50000000	      0.00000000	      0.25000000	     57.31907112	     10.01557417	    -33.99075948	    114.28318511	      1.99461786	     27.91871681	     -8.88355757	      0.00000000	      0.00000000	     47.23414302	    -49.93936676	     39.60984157	     88.46922388	      1.54407924	     18.05570364	     27.63680496	      0.00000000	      0.00000000	    -89.91636584	     18.74625512	     34.38194753	     89.66917422	    -16.40235043	     44.54327808	     42.70753465	     24.35462818	      0.00000000	      0.00000000	     89.73753099	    -10.77200340	     37.49945800	     50.03611864	     26.13550498	      0.00000000	      0.00000000
